<!DOCTYPE svg PUBLIC "-//W3C//DTD SVG 20010904//EN" "http://www.w3.org/TR/2001/REC-SVG-20010904/DTD/svg10.dtd">
<svg version="1.0" xmlns="http://www.w3.org/2000/svg" viewBox="0 0 11520 11520" preserveAspectRatio="xMidYMid meet">
<g id="layer101" fill="#000000" stroke="none">
 <path id="myPath" d="M5726 7473 c-7 -16 -34 -95 -60 -178 -168 -545 -318 -828 -569 -1079 -150 -149 -314 -250 -429 -265 -224 -28 -456 141 -584 426 -74 165 -88 194 -105 209 -16 15 -20 10 -58 -68 -50 -103 -106 -177 -260 -345 -191 -208 -342 -326 -526 -414 -157 -75 -232 -92 -405 -93 -131 0 -153 3 -225 27 -89 29 -161 70 -219 125 -91 87 -121 173 -120 347 1 238 76 470 237 727 70 113 80 135 67 143 -10 6 -392 -183 -539 -267 -174 -100 -377 -237 -536 -363 -264 -208 -514 -428 -550 -485 -13 -19 -68 -87 -124 -150 -119 -134 -216 -275 -288 -415 -61 -119 -125 -278 -153 -378 -46 -164 -69 -492 -51 -723 21 -268 52 -375 201 -679 143 -292 216 -395 465 -653 333 -346 743 -646 1185 -867 345 -173 901 -393 1152 -456 64 -16 166 -45 226 -63 128 -40 226 -60 258 -52 20 5 23 11 18 39 -7 36 -13 46 -81 134 -65 84 -153 245 -234 427 -136 307 -172 467 -172 771 0 191 17 315 64 457 86 265 247 457 479 573 153 76 235 94 331 71 250 -58 476 -267 588 -543 66 -161 101 -349 131 -705 12 -128 34 -352 51 -498 16 -146 39 -353 49 -460 21 -212 26 -240 39 -240 13 0 106 110 236 278 l110 142 422 0 422 0 32 -47 c59 -87 121 -162 138 -168 10 -3 25 -20 33 -38 17 -35 135 -177 147 -177 11 0 28 141 51 415 11 132 34 356 50 499 16 144 38 353 50 466 26 251 39 319 96 484 50 147 70 185 152 288 175 220 385 329 576 298 152 -24 317 -112 436 -231 120 -120 202 -259 272 -461 l33 -93 0 -275 c0 -313 -10 -391 -75 -590 -39 -119 -94 -235 -233 -495 -100 -187 -142 -251 -167 -258 -23 -6 -27 -42 -6 -50 24 -10 301 64 601 160 903 287 1687 750 2189 1291 221 239 287 331 429 602 96 183 150 319 179 451 21 98 23 126 23 474 0 330 -2 378 -19 440 -31 117 -103 290 -202 485 -81 158 -111 207 -212 335 -310 397 -714 735 -1207 1010 -159 89 -463 245 -477 245 -15 0 0 -35 54 -127 59 -99 143 -283 183 -398 34 -98 43 -232 26 -385 -14 -127 -41 -190 -115 -264 -247 -246 -738 -198 -1126 110 -169 135 -337 330 -500 580 -55 85 -71 103 -76 88 -137 -394 -338 -615 -582 -640 -111 -12 -260 45 -407 154 -94 70 -257 236 -303 307 -17 28 -59 93 -92 145 -74 116 -113 197 -195 405 -71 181 -119 330 -135 423 -20 114 -37 137 -64 85z"/>
 </g>

<script>
var myPathBox = document.getElementById("myPath").getBBox();
var h = Math.round(myPathBox.height)
var w = Math.round(myPathBox.width)
alert("height: " + h + "    width: " + w);
console.log(myPathBox)
</script>
</svg>