<?xml version="1.0" encoding="utf-8"?>
<!-- Svg Vector Icons : http://www.onlinewebfonts.com/icon -->
<!DOCTYPE svg PUBLIC "-//W3C//DTD SVG 1.1//EN" "http://www.w3.org/Graphics/SVG/1.1/DTD/svg11.dtd">
<svg version="1.1" xmlns="http://www.w3.org/2000/svg" xmlns:xlink="http://www.w3.org/1999/xlink" x="0px" y="0px" viewBox="0 0 1000 1000" enable-background="new 0 0 1000 1000" xml:space="preserve">
<metadata> Svg Vector Icons : http://www.onlinewebfonts.com/icon </metadata>
<g><g transform="translate(0.000000,218.000000) scale(0.100000,-0.100000)"><path id="myPath" d="M2107.4-775.1c-297.9-50-615-178.7-903.3-369c-186.4-121.1-532.4-474.7-670.7-684.2c-130.7-199.9-257.5-459.3-326.7-670.7c-55.7-171.1-121.1-488.2-103.8-503.5c5.8-7.7,61.5,1.9,123,17.3c407.4,105.7,1009,128.8,1360.7,53.8c374.8-80.7,622.7-247.9,753.4-515.1c51.9-101.9,73-173,78.8-267.2c7.7-82.6,19.2-123,32.7-117.2c311.4,138.4,582.3,194.1,857.2,176.8c420.9-25,795.7-203.7,1145.5-542c151.8-148,403.6-467.1,490.1-620.8c23.1-44.2,48.1-78.8,53.8-78.8c5.8,0,55.7,71.1,111.5,159.5c582.3,928.3,1464.5,1301.1,2289,964.8c178.7-73,161.5-82.6,186.4,107.6c15.4,121.1,107.6,305.6,205.6,413.2c169.1,184.5,405.5,290.2,770.7,345.9c355.6,55.7,928.3,11.5,1297.3-99.9c51.9-15.4,53.8,3.8,13.5,221C9652.8-1636.1,8638-744.3,7548.3-744.3h-149.9l11.5-51.9c5.8-30.7,23.1-136.5,34.6-238.3c19.2-157.6,17.3-209.5-9.6-344c-59.6-303.7-197.9-490.1-476.6-634.2c-242.2-124.9-467-174.9-843.7-186.4l-317.1-9.6l-173,559.3c-96.1,307.5-176.8,559.3-182.6,559.3s-28.8-67.3-53.8-149.9c-25-80.7-75-246-111.5-363.3l-67.3-217.2h-209.5h-209.5l-67.3,217.2c-36.5,117.2-86.5,282.5-111.5,363.3c-25,82.6-48,149.9-53.8,149.9s-88.4-251.8-182.6-559.3l-173-559.3l-317.1,9.6c-255.6,7.7-353.6,19.2-503.5,57.7c-353.6,92.3-628.5,280.6-738,505.5c-26.9,53.8-61.5,171-78.8,257.5c-26.9,134.5-28.8,186.4-9.6,344c11.5,101.9,28.8,207.6,34.6,238.3l11.5,51.9l-169.1-1.9C2338-748.2,2191.9-759.7,2107.4-775.1z"/></g></g>

<script>
var myPathBox = document.getElementById("myPath").getBBox();
var h = Math.round(myPathBox.height)
var w = Math.round(myPathBox.width)
alert("height: " + h + "    width: " + w);
console.log(myPathBox)
</script>

</svg>