<?xml version="1.0" encoding="UTF-8" standalone="no"?>
<!-- Created with Inkscape (http://www.inkscape.org/) -->
<svg xmlns:dc="http://purl.org/dc/elements/1.1/" xmlns:cc="http://creativecommons.org/ns#" xmlns:rdf="http://www.w3.org/1999/02/22-rdf-syntax-ns#" xmlns:svg="http://www.w3.org/2000/svg" xmlns="http://www.w3.org/2000/svg" xmlns:sodipodi="http://sodipodi.sourceforge.net/DTD/sodipodi-0.dtd" xmlns:inkscape="http://www.inkscape.org/namespaces/inkscape" version="1.1" id="svg815" xml:space="preserve" width="174.07071" height="150.86121" viewBox="0 0 174.07071 150.86121" sodipodi:docname="Circle.svg" inkscape:version="0.92.4 (5da689c313, 2019-01-14)"><metadata id="metadata821"><rdf:RDF><cc:Work rdf:about=""><dc:format>image/svg+xml</dc:format><dc:type rdf:resource="http://purl.org/dc/dcmitype/StillImage"/><dc:title/></cc:Work></rdf:RDF></metadata><defs id="defs819"><clipPath clipPathUnits="userSpaceOnUse" id="clipPath833"><path d="M 0,0 H 792 V 612 H 0 Z" id="path831" inkscape:connector-curvature="0"/></clipPath></defs><sodipodi:namedview pagecolor="#ffffff" bordercolor="#666666" borderopacity="1" objecttolerance="10" gridtolerance="10" guidetolerance="10" inkscape:pageopacity="0" inkscape:pageshadow="2" inkscape:window-width="1920" inkscape:window-height="1017" id="namedview817" showgrid="false" inkscape:zoom="5.6210607" inkscape:cx="87.035355" inkscape:cy="75.430603" inkscape:window-x="-8" inkscape:window-y="-8" inkscape:window-maximized="1" inkscape:current-layer="g823"/><g id="g823" inkscape:groupmode="layer" inkscape:label="Circle" transform="matrix(1.3333333,0,0,-1.3333333,-90.40556,742.67267)"><g id="g825"/><g id="g827"><g id="g829" clip-path="url(#clipPath833)"><path d="m 168.517,498.862 c 0,-19.615 -17.291,-35.517 -38.621,-35.517 -21.329,0 -38.62,15.902 -38.62,35.517 0,19.616 17.291,35.517 38.62,35.517 21.33,0 38.621,-15.901 38.621,-35.517" style="fill:#ffffff;fill-opacity:1;fill-rule:nonzero;stroke:none" id="path835" inkscape:connector-curvature="0"/><path d="m 168.517,498.862 c 0,-19.615 -17.291,-35.517 -38.621,-35.517 -21.329,0 -38.62,15.902 -38.62,35.517 0,19.616 17.291,35.517 38.62,35.517 21.33,0 38.621,-15.901 38.621,-35.517 z" style="fill:none;stroke:#231f20;stroke-width:1;stroke-linecap:butt;stroke-linejoin:miter;stroke-miterlimit:4;stroke-dasharray:none;stroke-opacity:1" id="path837" inkscape:connector-curvature="0"/><text transform="matrix(1,0,0,-1,119.7588,495.8247)" style="font-variant:normal;font-weight:normal;font-size:12px;font-family:Myriad;-inkscape-font-specification:Myriad-Roman;writing-mode:lr-tb;fill:#231f20;fill-opacity:1;fill-rule:nonzero;stroke:none" id="text841"><tspan x="0 3.924 9.9359999 14.688" y="0" sodipodi:role="line" id="tspan839">test</tspan></text>
</g></g></g></svg>