<!DOCTYPE svg PUBLIC "-//W3C//DTD SVG 20010904//EN" "http://www.w3.org/TR/2001/REC-SVG-20010904/DTD/svg10.dtd">
<svg version="1.0" xmlns="http://www.w3.org/2000/svg" width="600px" height="600px" viewBox="0 0 6000 6000" preserveAspectRatio="xMidYMid meet">
<g id="layer101" fill="#000000" stroke="none">
 <path d="M2845 5504 c-353 -35 -595 -96 -861 -216 -276 -125 -496 -279 -724 -507 -246 -247 -404 -478 -533 -782 -388 -910 -189 -1965 508 -2687 297 -309 716 -555 1129 -663 428 -111 863 -111 1286 2 319 85 653 256 916 469 265 215 502 514 654 825 84 172 129 292 174 466 104 399 108 809 10 1209 -243 988 -1062 1725 -2074 1865 -112 15 -406 27 -485 19z m525 -178 c576 -100 1089 -400 1440 -842 317 -398 488 -860 507 -1364 44 -1206 -850 -2244 -2054 -2385 -1117 -131 -2175 577 -2488 1665 -92 320 -111 734 -49 1058 154 804 716 1470 1477 1752 134 49 352 104 472 119 50 6 101 13 115 15 63 11 490 -3 580 -18z"/>
 <path d="M2980 3205 c-13 -14 -29 -24 -36 -21 -10 4 -829 -809 -984 -977 l-54 -58 89 -89 89 -90 479 485 c263 267 482 485 485 485 4 0 315 -315 691 -700 376 -385 687 -700 690 -700 4 0 32 26 63 58 l56 57 -431 440 c-238 242 -585 597 -772 788 l-340 348 -25 -26z"/>
 </g>

</svg>